<svg xmlns="http://www.w3.org/2000/svg" viewBox="0 0 512 512" style="enable-background:new 0 0 512 512" xml:space="preserve"><path style="fill:#a9e7d8" d="M512 256c0 70.692-28.654 134.692-74.981 181.019S326.692 512 256 512s-134.692-28.654-181.019-74.981S0 326.692 0 256 28.654 121.308 74.981 74.981 185.308 0 256 0s134.692 28.654 181.019 74.981S512 185.308 512 256z"/><path style="fill:#93d8c6" d="M503.31 322.36c-8.225 30.74-22.033 59.2-40.268 84.227a257.468 257.468 0 0 1-66.833 63.633 255.47 255.47 0 0 1-22.221 13.025 253.816 253.816 0 0 1-23.579 10.775 253.702 253.702 0 0 1-49.73 14.09c-4.23.745-8.495 1.387-12.792 1.922s-8.627.963-12.987 1.278c-3.12.23-6.255.402-9.405.517a260.233 260.233 0 0 1-19.564-.022c-3.342-.13-6.666-.325-9.971-.585-3.78-.29-7.537-.662-11.27-1.117-3.732-.455-7.44-.992-11.12-1.612a252.38 252.38 0 0 1-25.371-5.569 253.836 253.836 0 0 1-24.359-8.021v.41c-.22-.15-.438-.303-.655-.455s-.435-.305-.655-.455a255.381 255.381 0 0 1-51.69-27.51c-28.99-19.995-53.655-45.81-72.305-75.759S7.25 327.1 2.32 290.57c15.32-7.84 39.27-17.708 67.357-20.878s60.313.358 92.183 19.308c0 0 6.853 3.652 17.591 6.594 10.739 2.941 25.364 5.171 40.909 2.326a73.445 73.445 0 0 0 6.67-1.52 76.22 76.22 0 0 0 5.317-1.702 72.785 72.785 0 0 0 5.332-2.167c3.3-1.485 6.59-3.265 9.845-5.376s6.475-4.554 9.635-7.364a81.3 81.3 0 0 0 2.19-2.01c.725-.69 1.445-1.4 2.16-2.13l.039-.031.121-.099c.615-.48 2.973-2.3 6.701-4.797a161.66 161.66 0 0 1 14.929-8.863c1.715-.9 3.512-1.802 5.381-2.691a144.089 144.089 0 0 1 5.809-2.609c14.725-6.22 32.832-10.903 50.99-8.148s36.365 12.947 51.29 36.478c0 0 .59 10.715 6.753 19.884 6.162 9.169 17.897 16.791 40.187 10.606 0 0 8.47-1.103 20.155-.781 11.686.32 26.586 2.065 39.446 7.76z"/><path style="fill:#d99155" d="M300.68 508.11c-4.23.745-8.495 1.387-12.792 1.922s-8.627.963-12.987 1.278c-3.12.23-6.255.402-9.405.517a260.288 260.288 0 0 1-19.565-.022c-3.342-.13-6.666-.325-9.971-.585-3.78-.29-7.537-.662-11.27-1.117-3.732-.455-7.44-.992-11.12-1.612a252.38 252.38 0 0 1-25.371-5.569 253.836 253.836 0 0 1-24.359-8.021v.41c-.22-.15-.438-.303-.655-.455s-.435-.305-.655-.455a255.381 255.381 0 0 1-51.69-27.51l4.43-30.565 4.43-30.565c.155-1.09.328-2.178.514-3.26.186-1.083.386-2.16.596-3.23.215-1.08.44-2.153.677-3.219s.487-2.126.753-3.181V392.861l.331-1.259c.111-.419.224-.836.339-1.251.265-.98.54-1.955.826-2.924a112.417 112.417 0 0 1 1.23-3.906l.344-1.02a161.193 161.193 0 0 1 2.25-6.04 126.061 126.061 0 0 1 5.869-12.605 127.173 127.173 0 0 1 7.151-11.795 126.28 126.28 0 0 1 7.59-9.98c.225-.265.448-.532.673-.8.225-.268.453-.535.688-.8 1.505-1.725 3.055-3.407 4.65-5.045s3.235-3.23 4.92-4.775l.675-.614c.225-.204.45-.406.675-.606a99.87 99.87 0 0 1 2.88-2.49l.255-.21.255-.21v-.01a125.257 125.257 0 0 1 3.34-2.67c.205-.16.413-.317.62-.475.207-.158.415-.315.62-.475.045-.03.088-.06.13-.091.043-.031.085-.064.13-.099a153.363 153.363 0 0 1 1.9-1.39c.665-.48 1.337-.953 2.015-1.418.678-.465 1.36-.922 2.045-1.372.245-.16.49-.32.735-.478s.49-.312.735-.463c.51-.335 1.022-.66 1.539-.979a89.64 89.64 0 0 1 1.561-.941c.385-.23.773-.46 1.161-.687s.779-.452 1.169-.672v-.011c.075-.04.15-.083.226-.126l.234-.134a61.485 61.485 0 0 1 1.33-.73l.495-.269c.165-.089.33-.176.495-.261l.135-.075.135-.075a114.612 114.612 0 0 1 2.09-1.07 107.94 107.94 0 0 1 2.39-1.171.301.301 0 0 1 .08-.04.408.408 0 0 1 .035-.015l.035-.015 1.08-.509c.36-.169.72-.336 1.08-.501.02-.005.037-.013.055-.02s.035-.015.055-.02a58.962 58.962 0 0 1 1.55-.68c.075-.035.15-.067.226-.1l.234-.1.81-.344c.27-.114.54-.226.81-.336l.04-.015.04-.015.025-.01a109.816 109.816 0 0 1 2.755-1.09l.155-.06.155-.06c.035-.015.067-.028.1-.04l.1-.04c.02-.005.04-.013.06-.02s.04-.015.06-.02a108.093 108.093 0 0 1 2.83-1.03l2.575-.89 2.575-.89h.01l.001-.001.009-.009 2.265-.78 2.265-.78 1.215-.42 1.215-.42 2.23-.775 2.23-.775 1.165-.405 1.165-.405 3.015-1.045 3.015-1.045.015-.001a.03.03 0 0 0 .015-.009 4.099 4.099 0 0 0 .611-.26 4.497 4.497 0 0 0 1.739-1.609 4.332 4.332 0 0 0 .651-2.291V250.29h53.88v42.92c0 .86.253 1.68.701 2.375a4.436 4.436 0 0 0 1.879 1.625l2.45 1.11 2.45 1.11.18.085.18.085 3.82 1.725 3.82 1.725.95.32.95.32 2.29.775 2.29.775a34.643 34.643 0 0 1 1.45.51c1.145.395 2.28.812 3.406 1.246 1.126.434 2.244.884 3.354 1.344.67.285 1.338.575 2.001.871a95.94 95.94 0 0 1 1.979.909 22.683 22.683 0 0 1 .95.44 222.645 222.645 0 0 1 1.03.49c.545.265 1.09.532 1.634.806.544.274 1.086.554 1.626.844a44.492 44.492 0 0 1 1.23.64 132.782 132.782 0 0 1 5.01 2.87c1.98 1.195 3.92 2.44 5.819 3.736a118.344 118.344 0 0 1 5.571 4.044 108.633 108.633 0 0 1 2.68 2.12c.675.55 1.345 1.11 2.01 1.677.665.568 1.325 1.143 1.98 1.723.23.2.457.402.684.606s.451.409.676.614a72.892 72.892 0 0 1 1.02.95l.524.495c.174.165.346.33.516.495a65.283 65.283 0 0 1 1.5 1.46c.2.195.398.392.594.591l.586.599c.77.775 1.525 1.562 2.267 2.36a128.27 128.27 0 0 1 2.752 3.056c.187.213.371.429.551.644a38.598 38.598 0 0 1 1.171 1.38c.245.29.49.582.732.877.242.295.482.592.717.893l.284.346c.094.116.186.234.276.354a71.675 71.675 0 0 1 1.439 1.85c.28.365.56.733.838 1.103a125.563 125.563 0 0 1 5.657 8.274 127.04 127.04 0 0 1 13.335 28.687 129.402 129.402 0 0 1 5.11 22.925l3.995 31.075 3.995 31.075a255.47 255.47 0 0 1-22.221 13.025 253.816 253.816 0 0 1-23.579 10.775 253.702 253.702 0 0 1-49.731 14.091z"/><path style="fill:#e9b12d" d="M396.21 470.22a255.47 255.47 0 0 1-22.221 13.025 253.816 253.816 0 0 1-23.579 10.775 253.702 253.702 0 0 1-49.73 14.09c-4.23.745-8.495 1.387-12.792 1.922s-8.627.963-12.987 1.278c-3.12.23-6.255.402-9.405.517a260.288 260.288 0 0 1-19.565-.022c-3.342-.13-6.666-.325-9.971-.585-3.78-.29-7.537-.662-11.27-1.117-3.732-.455-7.44-.992-11.12-1.612a252.38 252.38 0 0 1-25.371-5.569 253.836 253.836 0 0 1-24.359-8.021v.41c-.22-.15-.438-.303-.655-.455s-.435-.305-.655-.455a255.381 255.381 0 0 1-51.69-27.51l4.43-30.565 4.43-30.565c.155-1.09.328-2.178.514-3.26.186-1.083.386-2.16.596-3.23.215-1.08.44-2.153.677-3.219s.487-2.126.753-3.181V392.861l.331-1.259c.111-.419.224-.836.339-1.251.265-.98.54-1.955.826-2.924a112.417 112.417 0 0 1 1.23-3.906l.344-1.02a161.193 161.193 0 0 1 2.25-6.04 126.061 126.061 0 0 1 5.869-12.605 127.173 127.173 0 0 1 7.151-11.795 126.28 126.28 0 0 1 7.59-9.98c.225-.265.448-.532.673-.8.225-.268.453-.535.688-.8 1.505-1.725 3.055-3.407 4.65-5.045s3.235-3.23 4.92-4.775l.675-.614c.225-.204.45-.406.675-.606a99.87 99.87 0 0 1 2.88-2.49c.085-.075.17-.147.255-.219s.17-.141.255-.211a125.257 125.257 0 0 1 3.34-2.67c.205-.16.413-.317.62-.475.207-.158.415-.315.62-.475.045-.03.088-.06.13-.091.043-.031.085-.064.13-.099a153.363 153.363 0 0 1 1.9-1.39c.665-.48 1.337-.953 2.015-1.418.678-.465 1.36-.922 2.045-1.372.245-.16.49-.32.735-.478s.49-.312.735-.463c.51-.335 1.022-.66 1.539-.979a89.64 89.64 0 0 1 1.561-.941c.385-.23.773-.46 1.161-.687s.779-.452 1.169-.672v-.011c.075-.04.15-.083.226-.126l.234-.134a61.485 61.485 0 0 1 1.33-.73l.495-.269c.165-.089.33-.176.495-.261l.135-.075.135-.075.025-.015.025-.015a142.278 142.278 0 0 1 2.82-1.441c.17-.08.34-.162.51-.246l.51-.254.295-.135.295-.135a.301.301 0 0 1 .08-.04c.165-.08.33-.158.495-.235s.33-.155.495-.235l.62-.285.62-.285c.02-.005.037-.013.055-.02s.035-.015.055-.02a58.962 58.962 0 0 1 1.55-.68c.075-.035.15-.067.226-.1l.234-.1.81-.344c.27-.114.54-.226.81-.336l.04-.015.04-.015.025-.01a109.816 109.816 0 0 1 2.755-1.09l.155-.06.155-.06a29.586 29.586 0 0 0 .32-.12 108.093 108.093 0 0 1 2.83-1.03l2.575-.89 2.575-.89h.01l.001-.001.009-.009 2.265-.78 2.265-.78 1.215-.42 1.215-.42 2.23-.775 2.23-.775 1.165-.405 1.165-.405 3.35 3.655 3.35 3.655 4.45 4.855 4.45 4.855 3.71 4.045 3.71 4.045c3.43 3.74 8.095 5.61 12.759 5.61s9.326-1.87 12.751-5.61l3.005-3.28 3.005-3.28 7.335-7.995 7.335-7.995.785-.86.785-.86 3.82 1.725 3.82 1.725.95.32.95.32 2.29.775 2.29.775a34.643 34.643 0 0 1 1.45.51c1.145.395 2.28.812 3.406 1.246 1.126.434 2.244.884 3.354 1.344.67.285 1.338.575 2.001.871a95.94 95.94 0 0 1 1.979.909 22.683 22.683 0 0 1 .95.44 222.645 222.645 0 0 1 1.03.49c.545.265 1.09.532 1.634.806.544.274 1.086.554 1.626.844a44.492 44.492 0 0 1 1.23.64 132.782 132.782 0 0 1 5.01 2.87c1.98 1.195 3.92 2.44 5.819 3.736a118.344 118.344 0 0 1 5.571 4.044 108.633 108.633 0 0 1 2.68 2.12c.675.55 1.345 1.11 2.01 1.677.665.568 1.325 1.143 1.98 1.723.23.2.457.402.684.606s.451.409.676.614a72.892 72.892 0 0 1 1.02.95 48.76 48.76 0 0 1 1.04.98 101.501 101.501 0 0 1 1.5 1.471c.2.195.398.392.594.591l.586.599c.77.775 1.525 1.562 2.267 2.36a128.27 128.27 0 0 1 2.752 3.056c.187.213.371.429.551.644a38.598 38.598 0 0 1 1.171 1.38c.245.29.49.582.732.877.242.295.482.592.717.893l.284.346c.094.116.186.234.276.354a71.675 71.675 0 0 1 1.439 1.85c.28.365.56.733.838 1.103a125.563 125.563 0 0 1 5.657 8.274 127.04 127.04 0 0 1 13.335 28.687 129.402 129.402 0 0 1 5.11 22.925l3.995 31.075 3.995 31.076z"/><path style="fill:#ca874e" d="M229.42 250.29h27.74v42.21c0 .945-.302 1.83-.829 2.556a4.488 4.488 0 0 1-2.171 1.604c-.005.005-.01.008-.015.009l-.015.001-3.015 1.045-3.015 1.045-1.165.405-1.165.405-.02.01-.02.01-3.425 1.185-3.425 1.185-2.265.78-2.265.78-.009.009-.001.001h-.01l-2.575.89-2.575.89c-.355.125-.71.253-1.064.38l-1.056.38c-.245.09-.49.182-.735.276l-.735.284c-2.06.785-4.093 1.627-6.096 2.522a124.357 124.357 0 0 0-7.85 3.844c-.639.341-1.274.689-1.904 1.044l-.234.134a7.422 7.422 0 0 1-.226.126v.01c-2.46 1.395-4.865 2.87-7.213 4.425s-4.638 3.19-6.868 4.905c-3.265 2.5-6.398 5.16-9.389 7.97a123.119 123.119 0 0 0-9.229 9.67c-.225.267-.448.535-.673.8-1.345 1.595-2.65 3.225-3.915 4.889s-2.49 3.361-3.675 5.091c-.78 1.145-1.545 2.305-2.293 3.48s-1.477 2.365-2.187 3.57c-1.635 2.76-3.168 5.59-4.594 8.484s-2.746 5.851-3.956 8.866a179.696 179.696 0 0 0-2.24 6.04l-.347 1.02c-.115.34-.228.68-.333 1.02-.31.955-.608 1.917-.894 2.886s-.561 1.944-.826 2.924c-.115.415-.23.832-.343 1.251s-.222.839-.327 1.259V392.87c-.265 1.055-.515 2.115-.753 3.181s-.462 2.139-.677 3.219c-.21 1.07-.41 2.147-.596 3.23-.186 1.082-.359 2.17-.514 3.26l-4.935 34.06-4.935 34.06a199.722 199.722 0 0 0 6.48 5.91 226.922 226.922 0 0 0 18.48 14.61 255.381 255.381 0 0 1-51.69-27.51l4.43-30.565 4.43-30.565c.155-1.09.328-2.178.514-3.26.186-1.083.386-2.16.596-3.23.215-1.08.44-2.153.677-3.219s.487-2.126.753-3.181V392.86l.331-1.259c.111-.419.224-.836.339-1.251.265-.98.54-1.955.826-2.924a112.417 112.417 0 0 1 1.23-3.906l.344-1.02a161.193 161.193 0 0 1 2.25-6.04 126.061 126.061 0 0 1 5.869-12.605 127.173 127.173 0 0 1 7.151-11.795 126.28 126.28 0 0 1 7.59-9.98c.225-.265.448-.532.673-.8.225-.268.453-.535.688-.8 1.505-1.725 3.055-3.407 4.65-5.045s3.235-3.23 4.92-4.775l.675-.614c.225-.204.45-.406.675-.606a99.87 99.87 0 0 1 2.88-2.49l.255-.21.255-.21v-.01a125.257 125.257 0 0 1 3.34-2.67c.205-.16.413-.317.62-.475.207-.158.415-.315.62-.475.045-.03.088-.06.13-.091.043-.031.085-.064.13-.099a153.363 153.363 0 0 1 1.9-1.39c.665-.48 1.337-.953 2.015-1.418.678-.465 1.36-.922 2.045-1.372.245-.16.49-.32.735-.478s.49-.312.735-.463c.51-.335 1.022-.66 1.539-.979a89.64 89.64 0 0 1 1.561-.941c.385-.23.773-.46 1.161-.687s.779-.452 1.169-.672v-.01c.075-.04.15-.083.226-.126l.234-.134a61.485 61.485 0 0 1 1.33-.73l.495-.269c.165-.089.33-.176.495-.261l.135-.075.135-.075.025-.015.025-.015 1.02-.524c.34-.174.68-.346 1.02-.516.13-.065.26-.133.39-.2s.26-.135.39-.2c.17-.08.34-.162.51-.246l.51-.254c.095-.045.19-.087.285-.13s.19-.085.285-.13c.005 0 .008-.002.01-.005s.005-.005.01-.005a.301.301 0 0 1 .08-.04.408.408 0 0 1 .035-.015l.035-.015c.155-.075.31-.148.464-.22.154-.073.306-.145.456-.22l.62-.285.62-.285c.02-.005.037-.013.055-.02s.035-.015.055-.02a58.962 58.962 0 0 1 1.55-.68c.075-.035.15-.067.226-.1l.234-.1.81-.344c.27-.114.54-.226.81-.336l.04-.015.04-.015.025-.01a109.816 109.816 0 0 1 2.755-1.09l.155-.06.155-.06c.035-.015.067-.028.1-.04l.1-.04c.02-.005.04-.013.06-.02s.04-.015.06-.02a108.093 108.093 0 0 1 2.83-1.03l2.575-.89 2.575-.89h.01l.001-.001.009-.009 2.265-.78 2.265-.78 1.215-.42 1.215-.42 2.23-.775 2.23-.775 1.165-.405 1.165-.405 3.015-1.045 3.015-1.045.015-.001a.03.03 0 0 0 .015-.009 4.099 4.099 0 0 0 .611-.26 4.497 4.497 0 0 0 1.739-1.609 4.332 4.332 0 0 0 .651-2.291v-42.21z"/><path style="fill:#1b305c" d="M283.691 17h-56.524c-22.49 0-42.736 9.331-57.157 24.28-14.421 14.95-23.017 35.518-22.207 57.994l1.186 32.916 1.186 32.916h9.176l1.256 9.363 1.256 9.363c.031 0 .061-.002.091-.004s.06-.005.091-.005v.01h12.032v-18.726h163.38v18.726h11.362v-.01c.031 0 .061.003.091.005s.06.004.091.004c.114 0 .226-.007.338-.014s.224-.016.337-.02l1.253-9.346 1.253-9.346h8.504l1.186-32.916 1.186-32.916c.81-22.476-7.786-43.045-22.207-57.994S306.182 17 283.691 17z"/><path style="fill:#192c4c" d="m200.39 99.276 1.184 32.914 1.184 32.914h-28.016v18.724h-12.216l-1.254-9.362-1.254-9.362h-9.176l-1.19-32.914-1.19-32.914c-.805-22.474 7.791-43.044 22.211-57.995s34.665-24.284 57.155-24.284h51.926c-22.49 0-42.737 9.333-57.159 24.284s-23.016 35.521-22.205 57.995z"/><path style="fill:#ca874e" d="M143.133 165.107c0 5.171 2.096 9.852 5.485 13.241s8.07 5.485 13.241 5.485l-2.466-18.387-2.466-18.387a18.778 18.778 0 0 0-9.877 6.599 18.6 18.6 0 0 0-3.917 11.449z"/><path style="fill:#d99155" d="M337.454 146.381c0-13.549-3.238-26.565-6.476-36.195s-6.476-15.872-6.476-15.872l-.049-.11-.049-.11c-8.868 3.432-19.391 6.208-31.057 8.125-11.667 1.918-24.477 2.977-37.919 2.977-13.298 0-25.977-1.037-37.543-2.916-11.566-1.879-22.017-4.6-30.86-7.967 0 0-3.238 6.243-6.476 15.872-3.238 9.63-6.476 22.646-6.476 36.195v28.362a9.056 9.056 0 0 1-2.662 6.426 9.06 9.06 0 0 1-6.426 2.662h-2.944c1.36 21.668 11.025 36.244 23.661 48.305 12.636 12.061 28.243 21.608 41.488 33.216 8.083 7.084 18.161 10.626 28.238 10.626s20.156-3.542 28.238-10.626c13.245-11.608 28.853-21.155 41.489-33.216 12.636-12.061 22.3-26.638 23.661-48.305h-2.274a9.056 9.056 0 0 1-6.426-2.662 9.06 9.06 0 0 1-2.662-6.426V146.381z"/><path style="fill:#ca874e" d="M367.724 165.107c0-4.199-1.382-8.076-3.717-11.199s-5.621-5.494-9.429-6.681l-2.452 18.286-2.452 18.286c5.013-.179 9.526-2.324 12.785-5.687s5.265-7.948 5.265-13.005z"/><path style="fill:#1b305c" d="m349.669 183.832.002-.017.002-.017c-.113.004-.225.013-.337.02s-.224.014-.338.014h.671zM348.816 183.832h.182c-.031 0-.061-.002-.091-.004s-.06-.005-.091-.005V183.832zM161.859 183.832h.182v-.01c-.031 0-.061.003-.091.005a.908.908 0 0 1-.091.005z"/><path style="fill:#ca874e" d="M261.507 275.655a41.905 41.905 0 0 1-18.04-1.208c-5.885-1.718-11.508-4.75-16.464-9.098-13.246-11.608-28.852-21.154-41.486-33.215-12.635-12.061-22.298-26.638-23.658-48.306h1.972c2.779 0 5.294-1.126 7.115-2.947s2.947-4.336 2.947-7.115V146.38c0-13.55 3.238-26.566 6.476-36.194s6.476-15.87 6.476-15.87c4.529 1.723 9.482 3.278 14.793 4.638 5.31 1.36 10.978 2.526 16.937 3.47-5.329 9.314-9.565 19.714-12.468 30.889-2.903 11.176-4.474 23.128-4.474 35.546 0 24.795 6.265 47.722 16.882 66.337s25.585 32.916 42.992 40.459z"/><path style="fill:#3d2107" d="M187.742 142.888a3.499 3.499 0 0 1-1.707-6.558c.261-.146 6.491-3.579 15.385-5.309 11.958-2.327 23.094-.451 32.203 5.426a3.499 3.499 0 0 1 1.043 4.838 3.498 3.498 0 0 1-4.838 1.043c-7.669-4.947-16.779-6.441-27.071-4.437-7.811 1.52-13.261 4.523-13.315 4.553a3.479 3.479 0 0 1-1.7.444z"/><path style="fill:#1b305c" d="M217.242 162.849c0 3.11-.876 5.925-2.292 7.963s-3.372 3.298-5.532 3.298-4.116-1.261-5.532-3.298-2.292-4.853-2.292-7.963c0-3.11.876-5.925 2.292-7.963s3.372-3.298 5.532-3.298 4.116 1.261 5.532 3.298 2.292 4.853 2.292 7.963z"/><path style="fill:#3d2107" d="M278.685 142.888a3.5 3.5 0 0 1-1.707-6.558c.261-.146 6.491-3.579 15.386-5.309 11.957-2.327 23.094-.451 32.202 5.426a3.5 3.5 0 1 1-3.795 5.881c-7.669-4.947-16.778-6.441-27.07-4.437-7.812 1.52-13.262 4.523-13.316 4.553a3.479 3.479 0 0 1-1.7.444z"/><path style="fill:#1b305c" d="M308.185 162.849c0 3.11-.876 5.925-2.292 7.963-1.416 2.038-3.372 3.298-5.532 3.298s-4.116-1.261-5.532-3.298c-1.416-2.038-2.292-4.853-2.292-7.963 0-3.11.876-5.925 2.292-7.963 1.416-2.038 3.372-3.298 5.532-3.298 2.161 0 4.116 1.261 5.532 3.298 1.417 2.037 2.292 4.853 2.292 7.963z"/><path style="fill:#bf8049" d="M266.035 194.146h-17.75c-1.306 0-2.488-.529-3.343-1.385s-1.385-2.038-1.385-3.343v-.858c0-1.306.529-2.488 1.385-3.343s2.038-1.385 3.343-1.385h17.75c1.306 0 2.488.529 3.343 1.385s1.385 2.038 1.385 3.343v.858c0 1.306-.529 2.488-1.385 3.343s-2.038 1.385-3.343 1.385z"/><path style="fill:#fff" d="M235.428 213.431c-.512 0-.969.219-1.289.566-.32.346-.501.82-.46 1.33.478 5.876 3.14 11.537 7.159 15.728 4.019 4.192 9.396 6.914 15.304 6.914 5.908 0 11.284-2.723 15.304-6.914 4.019-4.192 6.681-9.852 7.159-15.728.041-.51-.14-.984-.46-1.33a1.752 1.752 0 0 0-1.289-.566h-41.428z"/><path style="fill:#1a2e4f" d="M223.64 158.051a3.485 3.485 0 0 1-1.733-.461c-5.436-3.106-11.287-4.051-17.392-2.81-4.491.914-7.424 2.712-7.453 2.73a3.5 3.5 0 0 1-3.738-5.918c.16-.102 3.988-2.49 9.795-3.671 7.708-1.569 15.405-.326 22.26 3.591a3.5 3.5 0 0 1-1.739 6.539zM314.584 158.051a3.48 3.48 0 0 1-1.733-.461c-5.438-3.107-11.288-4.052-17.393-2.81-4.491.914-7.424 2.712-7.452 2.73a3.5 3.5 0 0 1-3.738-5.918c.16-.101 3.987-2.49 9.796-3.671 7.707-1.569 15.403-.326 22.26 3.591a3.5 3.5 0 0 1-1.74 6.539z"/><path style="fill:#1b305c" d="m296.743 215.486-6.86-7.824-6.86-7.824a5.868 5.868 0 0 0-4.413-1.999h-44.936a5.864 5.864 0 0 0-4.412 1.999l-6.86 7.824-6.86 7.824a5.852 5.852 0 0 0-1.444 4.253 5.845 5.845 0 0 0 1.987 4.028 5.86 5.86 0 0 0 6.25.953 5.83 5.83 0 0 0 2.03-1.496l5.984-6.824 5.984-6.824h39.62l5.984 6.824 5.984 6.824a5.846 5.846 0 0 0 4.415 1.999 5.867 5.867 0 0 0 3.867-1.456 5.853 5.853 0 0 0 1.987-4.028 5.872 5.872 0 0 0-1.447-4.253z"/><path style="fill:#e39123" d="M227.06 306.07c-.245.09-.49.182-.735.276l-.735.284c-2.06.785-4.093 1.627-6.096 2.522a124.357 124.357 0 0 0-7.85 3.844c-.639.341-1.274.689-1.904 1.044l-.234.134a7.422 7.422 0 0 1-.226.126v.01c-2.46 1.395-4.865 2.87-7.213 4.425s-4.638 3.19-6.868 4.905c-3.265 2.5-6.398 5.16-9.389 7.97a123.119 123.119 0 0 0-9.229 9.67c-.225.267-.448.535-.673.8-1.345 1.595-2.65 3.225-3.915 4.889s-2.49 3.361-3.675 5.091c-.78 1.145-1.545 2.305-2.293 3.48s-1.477 2.365-2.187 3.57c-1.635 2.76-3.168 5.59-4.594 8.484s-2.746 5.851-3.956 8.866a179.696 179.696 0 0 0-2.24 6.04l-.347 1.02c-.115.34-.228.68-.333 1.02-.31.955-.608 1.917-.894 2.886s-.561 1.944-.826 2.924c-.115.415-.23.832-.343 1.251s-.222.839-.327 1.259V392.87c-.265 1.055-.515 2.115-.753 3.181s-.462 2.139-.677 3.219c-.21 1.07-.41 2.147-.596 3.23-.186 1.082-.359 2.17-.514 3.26l-4.935 34.06-4.935 34.06a199.722 199.722 0 0 0 6.48 5.91 226.922 226.922 0 0 0 18.48 14.61 255.381 255.381 0 0 1-51.69-27.51l4.43-30.565 4.43-30.565c.155-1.09.328-2.178.514-3.26.186-1.083.386-2.16.596-3.23.215-1.08.44-2.153.677-3.219s.487-2.126.753-3.181V392.86l.331-1.259c.111-.419.224-.836.339-1.251.265-.98.54-1.955.826-2.924a112.417 112.417 0 0 1 1.23-3.906l.344-1.02a161.193 161.193 0 0 1 2.25-6.04 126.061 126.061 0 0 1 5.869-12.605 127.173 127.173 0 0 1 7.151-11.795 126.28 126.28 0 0 1 7.59-9.98c.225-.265.448-.532.673-.8.225-.268.453-.535.688-.8 1.505-1.725 3.055-3.407 4.65-5.045s3.235-3.23 4.92-4.775l.675-.614c.225-.204.45-.406.675-.606a99.87 99.87 0 0 1 2.88-2.49l.255-.21.255-.21v-.01a125.257 125.257 0 0 1 3.34-2.67c.205-.16.413-.317.62-.475.207-.158.415-.315.62-.475.045-.03.088-.06.13-.091.043-.031.085-.064.13-.099a153.363 153.363 0 0 1 1.9-1.39c.665-.48 1.337-.953 2.015-1.418.678-.465 1.36-.922 2.045-1.372.245-.16.49-.32.735-.478s.49-.312.735-.463c.51-.335 1.022-.66 1.539-.979a89.64 89.64 0 0 1 1.561-.941c.385-.23.773-.46 1.161-.687s.779-.452 1.169-.672v-.01c.075-.04.15-.083.226-.126l.234-.134a61.485 61.485 0 0 1 1.33-.73l.495-.269c.165-.089.33-.176.495-.261l.135-.075.135-.075.025-.015.025-.015 1.02-.524c.34-.174.68-.346 1.02-.516.13-.065.26-.133.39-.2s.26-.135.39-.2c.17-.08.34-.162.51-.246l.51-.254c.095-.045.19-.087.285-.13s.19-.085.285-.13c.005 0 .008-.002.01-.005s.005-.005.01-.005a.301.301 0 0 1 .08-.04.408.408 0 0 1 .035-.015l.035-.015c.155-.075.31-.148.464-.22.154-.073.306-.145.456-.22l.62-.285.62-.285c.02-.005.037-.013.055-.02s.035-.015.055-.02a58.962 58.962 0 0 1 1.55-.68c.075-.035.15-.067.226-.1l.234-.1.81-.344c.27-.114.54-.226.81-.336l.04-.015.04-.015.025-.01a109.816 109.816 0 0 1 2.755-1.09l.155-.06.155-.06c.035-.015.067-.028.1-.04l.1-.04c.02-.005.04-.013.06-.02s.04-.015.06-.02a108.093 108.093 0 0 1 2.83-1.03l2.575-.89 2.575-.89h.01l.001-.001.009-.009 2.265-.78 2.265-.78 1.215-.42 1.215-.42 2.23-.775 2.23-.775 1.165-.405 1.165-.405 3.35 3.655 3.351 3.655z"/><path style="fill:#d74545" d="M213.57 301.12v207.37a252.38 252.38 0 0 1-25.371-5.569 253.836 253.836 0 0 1-24.359-8.021V326.52a125.257 125.257 0 0 1 3.34-2.67c.205-.16.413-.317.62-.475.207-.158.415-.315.62-.475.045-.03.088-.06.13-.091.043-.031.085-.064.13-.099a153.363 153.363 0 0 1 1.9-1.39c.665-.48 1.337-.953 2.015-1.418.678-.465 1.36-.922 2.045-1.372.245-.16.49-.32.735-.478s.49-.312.735-.463c.51-.335 1.022-.66 1.539-.979a89.64 89.64 0 0 1 1.561-.941c.385-.23.773-.46 1.161-.687s.779-.452 1.169-.672v-.01c.075-.04.15-.083.226-.126l.234-.134a61.485 61.485 0 0 1 1.33-.73l.495-.269c.165-.089.33-.176.495-.261l.135-.075.135-.075.025-.015.025-.015a142.278 142.278 0 0 1 2.82-1.441c.17-.08.34-.162.51-.246l.51-.254.295-.135.295-.135a.301.301 0 0 1 .08-.04c.165-.08.33-.158.495-.235s.33-.155.495-.235l.62-.285.62-.285c.02-.005.037-.013.055-.02s.035-.015.055-.02a58.962 58.962 0 0 1 1.55-.68c.075-.035.15-.067.226-.1l.234-.1.81-.344c.27-.114.54-.226.81-.336l.04-.015.04-.015.025-.01a109.816 109.816 0 0 1 2.755-1.09l.155-.06.155-.06a29.586 29.586 0 0 0 .32-.12 108.093 108.093 0 0 1 2.83-1.03l2.575-.89 2.575-.89h.01l.001-.001.009-.009 2.265-.78 2.265-.78 1.215-.42 1.215-.419zM350.41 332.66v161.36a253.702 253.702 0 0 1-49.73 14.09V303.69l2.29.775 2.29.775a34.643 34.643 0 0 1 1.45.51c1.145.395 2.28.812 3.406 1.246 1.126.434 2.244.884 3.354 1.344.67.285 1.338.575 2.001.871a95.94 95.94 0 0 1 1.979.909 22.683 22.683 0 0 1 .95.44 222.645 222.645 0 0 1 1.03.49c.545.265 1.09.532 1.634.806.544.274 1.086.554 1.626.844a44.492 44.492 0 0 1 1.23.64 132.782 132.782 0 0 1 5.01 2.87c1.98 1.195 3.92 2.44 5.819 3.736a118.344 118.344 0 0 1 5.571 4.044 108.633 108.633 0 0 1 2.68 2.12c.675.55 1.345 1.11 2.01 1.677.665.568 1.325 1.143 1.98 1.723.23.2.457.402.684.606s.451.409.676.614a72.892 72.892 0 0 1 1.02.95 48.76 48.76 0 0 1 1.04.98z"/><path style="fill:#e39123" d="M274.9 315.38v195.93c-3.12.23-6.255.402-9.405.517a260.233 260.233 0 0 1-19.564-.022c-3.342-.13-6.666-.325-9.971-.585V315.38h38.94z"/><path style="fill:#fff" d="M255.785 315.792c-1.493-7.319-7.64-14.406-14.405-20.237-6.764-5.831-14.146-10.405-18.11-12.7a1.916 1.916 0 0 0-1.938.001 1.927 1.927 0 0 0-.969 1.681v14.226c11.318 17.86 19.669 25.885 25.442 29.299 5.773 3.414 8.969 2.218 9.979 1.637 1.01.581 4.206 1.777 9.979-1.637s14.123-11.439 25.442-29.299v-14.226c0-.746-.404-1.354-.969-1.681s-1.292-.375-1.938-.001c-3.963 2.295-11.345 6.87-18.11 12.7-6.763 5.831-12.909 12.918-14.403 20.237z"/></svg>